<?xml version="1.0" encoding="UTF-8" standalone="no"?>
<svg
   xmlns:dc="http://purl.org/dc/elements/1.1/"
   xmlns:cc="http://creativecommons.org/ns#"
   xmlns:rdf="http://www.w3.org/1999/02/22-rdf-syntax-ns#"
   xmlns:svg="http://www.w3.org/2000/svg"
   xmlns="http://www.w3.org/2000/svg"
   xmlns:sodipodi="http://sodipodi.sourceforge.net/DTD/sodipodi-0.dtd"
   xmlns:inkscape="http://www.inkscape.org/namespaces/inkscape"
   inkscape:version="1.0 (4035a4fb49, 2020-05-01)"
   sodipodi:docname="Logo Rugby Football Union.svg"
   id="svg903"
   version="1.1"
   viewBox="0 0 214.06981 377.26483"
   style="clip-rule:evenodd;fill-rule:evenodd;image-rendering:optimizeQuality;shape-rendering:geometricPrecision;text-rendering:geometricPrecision"
   height="377.26578"
   width="214.06981"
   xml:space="preserve"><metadata
   id="metadata907"><rdf:RDF><cc:Work
       rdf:about=""><dc:format>image/svg+xml</dc:format><dc:type
         rdf:resource="http://purl.org/dc/dcmitype/StillImage" /><dc:title></dc:title></cc:Work></rdf:RDF></metadata><sodipodi:namedview
   inkscape:current-layer="svg903"
   inkscape:window-maximized="0"
   inkscape:window-y="0"
   inkscape:window-x="160"
   inkscape:cy="188.43759"
   inkscape:cx="107.22264"
   inkscape:zoom="2.0025"
   fit-margin-bottom="0"
   fit-margin-right="0"
   fit-margin-left="0"
   fit-margin-top="0"
   showgrid="false"
   id="namedview905"
   inkscape:window-height="1030"
   inkscape:window-width="1635"
   inkscape:pageshadow="2"
   inkscape:pageopacity="0"
   guidetolerance="10"
   gridtolerance="10"
   objecttolerance="10"
   borderopacity="1"
   bordercolor="#666666"
   pagecolor="#ffffff" />
 <defs
   id="defs873">
  <style
   id="style871"
   type="text/css">
   <![CDATA[
    .fil2 {fill:#017C37}
    .fil1 {fill:#25292A}
    .fil6 {fill:#304E35}
    .fil4 {fill:#762432}
    .fil5 {fill:#A71931}
    .fil3 {fill:white}
    .fil0 {fill:black;fill-rule:nonzero}
   ]]>
  </style>
 </defs>
 <g
   transform="translate(-12.777356,-11.562411)"
   id="Capa_x0020_1">
  <metadata
   id="CorelCorpID_0Corel-Layer" />
  <g
   id="_196079024">
   <path
   d="m 35.2783,334.53 h 24.2823 v -9.27874 h -5.33031 v 4.34291 h -9.67323 v -9.17953 h 9.82087 v -4.7374 h -9.82087 v -8.68583 h 9.62362 v 4.34291 h 5.33031 v -9.27874 h -24.2327 v 4.98425 h 3.70157 v 22.5059 h -3.70157 v 4.98425 z m 36.5705,-21.6165 h -8.39055 v 4.54016 h 3.20906 v 12.6343 h -3.20906 v 4.44213 h 11.5488 v -4.44213 h -2.96102 v -10.1669 c 1.72795,-1.43031 3.70157,-2.51693 5.57717,-2.51693 1.28268,0 2.17205,0.4937 2.66575,1.4315 0.295276,0.54331 0.442913,1.33228 0.442913,2.22047 v 9.03189 h -2.96102 v 4.44213 h 11.5488 v -4.44213 h -3.20787 v -10.3642 c 0,-1.77638 -0.394488,-3.2563 -1.13504,-4.44094 -1.13504,-1.72795 -3.01063,-2.76378 -5.57598,-2.76378 -3.15945,0 -5.47913,1.82598 -7.55197,3.84921 v -3.45472 z m 41.0622,4.54016 h 3.20787 v -4.54016 h -8.38937 v 1.92402 c -1.4315,-1.23307 -3.40512,-2.3185 -6.17008,-2.3185 -5.62559,0 -10.1173,4.78701 -10.1173,10.9559 0,6.41575 4.39252,10.611 9.87165,10.611 2.86181,0 4.58976,-1.13504 6.21732,-2.76378 v 3.10866 c 0,1.63701 -0.34488,2.87126 -0.98622,3.75945 -0.93779,1.28268 -2.46732,1.87559 -4.39252,1.87559 -1.28386,0 -2.31969,-0.24685 -3.20787,-0.54331 0.04961,-0.19724 0.09803,-0.59173 0.09803,-0.83858 0,-1.62874 -1.33228,-2.81339 -3.010631,-2.81339 -1.77638,0 -2.91142,1.4811 -2.91142,3.01063 0,1.03701 0.346063,1.9748 1.18465,2.81339 1.52953,1.52953 4.7374,2.71417 8.488581,2.71417 3.50433,0 6.31772,-1.13504 8.09409,-3.30591 1.33228,-1.62992 2.02323,-3.85039 2.02323,-6.51496 v -17.1343 z m -10.2165,-0.29646 c 1.9252,0 3.55394,0.69095 4.83661,1.67835 v 8.5878 c -1.38071,1.28268 -3.01063,2.12244 -4.83661,2.12244 -3.30591,0 -5.7248,-2.17205 -5.7248,-6.12047 0,-4.09606 2.4189,-6.26811 5.7248,-6.26811 z m 15.8433,17.3728 h 11.9433 v -4.44213 h -3.20787 v -31.6843 h -8.73543 v 4.54016 h 3.35551 v 27.1441 h -3.35551 v 4.44213 z m 21.6661,0.40276 c 2.91142,0 5.52756,-1.29094 7.25551,-2.77205 V 334.53 h 8.33976 v -4.44213 h -3.20787 v -9.22913 c 0,-2.17087 -0.54213,-4.04646 -1.67835,-5.42835 -1.52953,-1.87559 -4.04646,-2.91142 -7.74803,-2.91142 -5.87244,0 -8.5878,2.8122 -8.5878,5.47795 0,1.77638 1.23425,2.91142 2.86299,2.91142 1.62874,0 2.91142,-1.18465 2.91142,-2.81339 0,-0.29646 -0.098,-0.78898 -0.19724,-1.08543 0.4937,-0.19725 1.18465,-0.34488 2.12244,-0.34488 1.9252,0 3.35551,0.44409 4.24488,1.57913 0.54212,0.69094 0.83858,1.67717 0.83858,2.96102 v 1.72677 c -1.18465,-0.29646 -3.25748,-0.59173 -5.47913,-0.59173 -5.13189,0 -8.68583,2.46732 -8.68583,6.51496 0,4.04646 3.30709,6.07795 7.00866,6.07795 z m 1.72677,-3.90709 c -1.92402,0 -3.20669,-0.9378 -3.20669,-2.66457 0,-1.9748 1.57913,-3.15827 4.19409,-3.15827 1.67835,0 3.20787,0.19724 4.44213,0.49252 v 3.4063 c -1.62874,1.18346 -3.50433,1.92402 -5.42953,1.92402 z m 24.5787,-18.1122 h -8.39055 v 4.54016 h 3.20787 v 12.6343 h -3.20787 v 4.44213 h 11.5488 v -4.44213 h -2.96102 v -10.1669 c 1.72795,-1.43031 3.70157,-2.51693 5.57717,-2.51693 1.28268,0 2.17087,0.4937 2.66457,1.4315 0.29646,0.54331 0.44409,1.33228 0.44409,2.22047 v 9.03189 h -2.96102 v 4.44213 h 11.5488 v -4.44213 h -3.20787 v -10.3642 c 0,-1.77638 -0.39567,-3.2563 -1.13504,-4.44094 -1.13504,-1.72795 -3.01063,-2.76378 -5.57717,-2.76378 -3.15827,0 -5.47795,1.82598 -7.55079,3.84921 v -3.45472 z m 29.6126,22.0193 c 2.76378,0 4.78701,-1.24134 6.36614,-2.77205 v 2.36929 h 8.58661 v -4.44213 h -3.20669 v -31.6843 h -8.6374 v 4.54016 h 3.25748 v 11.648 c -1.23425,-1.03701 -3.25748,-2.07283 -6.02126,-2.07283 -5.82402,0 -10.3642,5.03386 -10.3642,11.3008 0,6.51496 4.29331,11.113 10.0193,11.113 z m 1.23307,-4.64764 c -3.15827,0 -5.7248,-2.36811 -5.7248,-6.51378 0,-4.29331 2.71417,-6.61417 5.7248,-6.61417 2.02323,0 3.70157,0.69094 5.13307,1.67835 v 9.27874 c -1.4811,1.28268 -3.10984,2.17087 -5.13307,2.17087 z m -140.361,48.6638 h 13.3252 V 373.9635 H 66.2716 v -7.30512 c 0.692126,0.0496 1.62992,0.0496 2.66575,0.0496 0.641339,0 1.28268,-0.0496 1.97362,-0.098 l 6.51496,12.339 h 7.50236 v -4.98543 h -3.70157 l -4.98543,-8.83465 c 3.55394,-1.43031 6.12047,-4.63819 6.12047,-8.83346 0,-6.61417 -5.33031,-9.82205 -12.7831,-9.82205 h -12.5846 v 4.98543 h 3.70157 v 22.5047 h -3.70157 v 4.98543 z m 12.437,-16.9783 c -1.77638,0 -2.56654,-0.0496 -3.15945,-0.0992 v -10.4126 h 3.01063 c 4.49173,0 7.30512,1.62874 7.30512,5.03386 0,3.40512 -2.96102,5.47795 -7.1563,5.47795 z m 27.0449,17.3811 c 3.15945,0 5.47795,-1.83543 7.55197,-3.85866 v 3.45591 h 8.38937 v -4.44331 h -3.20787 v -17.1744 h -8.73543 v 4.54016 h 3.35551 v 10.0689 c -1.72677,1.43031 -3.70157,2.51693 -5.57598,2.51693 -1.28386,0 -2.17205,-0.4937 -2.66575,-1.4315 -0.296457,-0.59291 -0.444094,-1.28268 -0.444094,-2.22047 v -13.474 h -8.5878 v 4.54016 h 3.20787 v 10.2661 c 0,1.72677 0.395669,3.20787 1.08661,4.34291 1.08543,1.77638 3.01063,2.87126 5.62559,2.87126 z m 40.3713,-17.4803 h 3.20787 v -4.54016 h -8.38937 v 1.9252 c -1.4315,-1.23425 -3.40512,-2.31969 -6.1689,-2.31969 -5.62677,0 -10.1185,4.78701 -10.1185,10.9559 0,6.41575 4.39252,10.611 9.87165,10.611 2.86181,0 4.58976,-1.13504 6.21732,-2.76378 v 3.10984 c 0,1.63701 -0.34488,2.87008 -0.98622,3.75827 -0.9378,1.28386 -2.46732,1.87559 -4.39252,1.87559 -1.28386,0 -2.31969,-0.24567 -3.20787,-0.54213 0.0496,-0.19842 0.098,-0.59291 0.098,-0.83976 0,-1.62874 -1.33228,-2.8122 -3.01063,-2.8122 -1.77638,0 -2.91142,1.47992 -2.91142,3.01063 0,1.03583 0.34606,1.97362 1.18465,2.8122 1.52953,1.53071 4.7374,2.71535 8.48858,2.71535 3.50433,0 6.31772,-1.13622 8.09409,-3.30709 1.33228,-1.62874 2.02323,-3.85039 2.02323,-6.51496 v -17.1343 z m -10.2165,-0.29528 c 1.9252,0 3.55394,0.69095 4.83661,1.67717 v 8.5878 c -1.38071,1.28386 -3.00945,2.12244 -4.83661,2.12244 -3.30591,0 -5.7248,-2.17205 -5.7248,-6.12047 0,-4.09606 2.4189,-6.26693 5.7248,-6.26693 z m 29.563,17.7756 c 5.82402,0 10.3642,-5.04331 10.3642,-11.3102 0,-6.51496 -4.29331,-11.1047 -10.0181,-11.1047 -2.76378,0 -4.78819,1.23307 -6.36732,2.76378 v -16.8791 h -8.63622 v 4.54016 h 3.25748 v 31.6937 h 3.65197 l 1.18465,-2.18031 c 1.82598,1.4811 3.79961,2.47677 6.56339,2.47677 z m -0.88819,-4.64764 c -2.02323,0 -3.70157,-0.69094 -5.13307,-1.67835 v -9.27874 c 1.4811,-1.28268 3.10984,-2.17087 5.13307,-2.17087 3.15827,0 5.7248,2.36811 5.7248,6.51496 0,4.29331 -2.71417,6.61299 -5.7248,6.61299 z m 24.0354,11.2606 c 0.64134,-0.74055 1.18346,-1.62874 1.67835,-2.61614 l 10.1161,-21.4772 h 2.61614 v -4.54016 h -11.1047 v 4.29449 h 3.35669 l -5.03386,11.4 -4.98543,-11.4 h 3.15945 v -4.29449 h -11.1543 v 4.54016 h 2.66575 l 7.69843,15.9909 -1.62874,3.41339 c -0.34488,0.69095 -0.64134,1.23425 -0.9874,1.67835 -0.59173,0.78898 -1.18346,1.13504 -1.72677,1.28386 -0.34606,-0.83976 -1.08661,-1.62992 -2.36929,-1.62992 -1.4315,0 -2.66457,0.9378 -2.66457,2.76378 0,1.72795 1.77638,3.4063 4.63937,3.4063 2.17087,0 4.14449,-0.9874 5.7248,-2.81339 z"
   class="fil0"
   id="_194815824" />
   <path
   d="m 171.267,259.77 c 0,-5.3563 4.68661,-9.37323 10.0417,-9.37323 5.3563,0 9.37441,4.01693 9.37441,9.37323 0,5.35748 -4.01693,10.0429 -9.37441,10.0429 -5.3563,0 -10.0417,-4.68543 -10.0417,-10.0429 z m 2.00787,0 c 0,4.6878 3.34724,8.03504 8.03386,8.03504 4.01811,0 8.03504,-3.34724 8.03504,-8.03504 0,-4.68661 -4.01693,-8.03386 -8.03504,-8.03386 -4.68661,0 -8.03386,3.34724 -8.03386,8.03386 z m 10.7161,5.35748 -2.67874,-4.68661 h -2.00787 v 4.68661 h -2.00906 v -10.7161 h 4.68661 c 2.00787,0 4.01693,0.66968 4.01693,3.34724 0,2.00787 -2.00906,2.67756 -3.34724,2.67756 l 2.67874,4.6878 h -1.33937 v 0.004 0 z m -4.68661,-6.02717 h 1.33819 c 1.33937,0 3.34724,0 3.34724,-1.33819 0,-1.33937 -0.66969,-1.33937 -2.00787,-1.33937 h -2.67756 z"
   class="fil1"
   id="_196086920" />
   <path
   d="m 88.9488,286.384 c 0.395669,0.39685 0.79252,0.39685 1.58504,-0.79252 -0.398031,0.79252 -0.79252,1.18937 -1.18937,1.18937 0,0 -0.395669,0 -0.395669,-0.39685 v 0 0 z m -0.39685,-1.18937 c -0.79252,-3.17126 -1.98189,-6.74055 -4.75748,-9.51496 -2.37756,-3.17008 -4.36063,-7.53189 -4.7563,-8.72126 0,0 -0.79252,1.58622 -1.58622,2.37874 -0.793701,0.79252 -0.793701,0.79252 -2.37756,-0.39685 -1.18937,-1.18937 -5.55,-6.74055 -5.94567,-15.0638 0,-0.79252 -0.39685,-1.18937 -0.79252,-0.79252 -0.793701,0.39685 -1.98189,1.18937 -2.77559,-0.79252 -0.39685,-1.98189 0,-6.34488 2.37874,-11.8925 1.98189,-3.96378 3.96378,-5.55 2.77441,-8.72244 0,0 -0.79252,-2.37874 -3.17126,-3.17008 0,0 -0.794882,-0.39685 -1.58622,0 -2.77441,1.58386 -13.0831,7.92874 -22.5945,17.4402 -1.58622,1.58622 -3.17244,3.17244 -6.34488,1.18937 -4.36063,-2.77323 -9.51378,-6.34252 -16.6488,-9.51378 -6.34488,-2.37874 -7.92874,-3.96378 -7.53425,-5.55 0.794882,-1.58622 2.77441,-1.58622 5.55,-1.18701 2.77441,0 12.2882,3.56575 30.5232,-5.55 0.39685,-0.39685 1.58622,-0.79252 1.18937,-2.37874 0,-1.58504 0.39685,-7.1374 0.39685,-8.72244 0,-1.18937 0.79252,-1.98071 1.98189,-0.79134 1.18819,1.18701 3.96378,3.96142 6.34252,5.54764 1.18819,0.39685 2.37756,0.79252 4.36063,0 1.58504,-0.79252 18.6307,-11.8925 19.4244,-12.2882 0,0 -3.56811,-1.98189 -8.72126,-1.58622 -4.75748,0.39685 -16.2531,0.79252 -25.3724,-3.17126 -3.56811,-1.58622 -10.3063,-6.73937 -11.8925,-8.72126 -0.79252,-0.79252 -1.18937,-1.98189 1.18937,-3.17126 0.79252,0 1.18937,-0.39685 0,-1.58622 -0.79252,-0.79252 -5.15315,-5.15315 -5.15315,-11.4957 0,-0.79252 0,-2.77441 2.37756,-2.37874 0,0 -2.37756,-2.77441 -3.56693,-8.72008 -0.39685,-1.18937 0.39685,-2.37874 1.58504,-1.98189 0,0 -3.96378,-6.74055 -4.7563,-12.2882 0,-1.18937 1.58622,-1.98189 2.77559,-0.79252 1.18819,1.18819 3.17126,3.17126 7.53071,4.7563 3.17244,1.18937 6.34252,1.98189 11.4969,2.37874 6.73819,0.39567 17.0457,3.17126 22.9913,7.1374 3.96378,2.37756 10.3063,9.11693 12.2882,15.4594 1.18937,4.35827 1.58622,9.51378 1.18937,12.2882 -0.39685,2.77441 -0.79252,7.92874 0.79252,10.7031 0,0 11.8925,-8.32323 17.8382,-17.0457 0,0 12.2882,3.56811 22.5957,-8.32441 0,0 1.58504,6.73937 6.34488,9.51496 2.37756,1.58504 5.15315,2.37756 9.51378,2.37756 0,0 -0.39685,0 -0.79252,0 0,0 9.51496,2.37874 11.498,2.77559 5.54764,1.58504 17.0433,4.7563 28.937,15.8563 11.4969,11.1 24.9744,28.1457 24.9744,28.1457 3.17126,5.55 6.74055,15.0626 6.74055,15.0626 -0.39685,0.39685 -0.79252,0 -1.18937,-1.18937 -0.79252,-2.37756 -3.17244,-6.74055 -9.11929,-9.90945 -5.94449,-2.77559 -9.11693,-3.17126 -11.0988,-3.17126 0,0 -0.39685,0 -0.39685,1.18937 0,1.58504 -0.79252,1.58504 -2.37874,1.18819 -3.96142,-0.79252 -15.0626,-4.36063 -21.0094,-10.7043 0,0 -0.39567,1.98189 -1.98189,2.37874 0,0 -4.36063,0 -7.13622,-7.53189 -1.98189,-5.94567 -4.75748,-20.2193 -11.1,-24.5787 -5.15315,-3.9626 -13.0819,-5.94449 -20.2181,-3.9626 -5.54882,1.18937 -13.4776,4.35827 -16.65,6.34252 0,0 3.17244,-0.39685 7.13504,-0.39685 -3.96378,0 -7.13504,0.39685 -7.13504,0.39685 -1.58504,0.79252 -0.79252,2.77559 0.39685,3.96378 0,0 5.94567,5.94685 9.11929,14.6669 1.98189,5.55 4.7563,22.2012 11.4957,30.9201 6.34488,8.32441 11.4957,11.1 11.4957,11.1 5.94567,6.74055 11.8925,9.11811 11.8925,9.11811 0.39685,-0.39567 0.39685,-0.79252 0,-1.58504 0.39685,1.18937 0,1.98189 -1.18937,1.58504 -3.1689,-0.39567 -15.0626,-3.17126 -22.1988,-13.0831 0,0 -0.79252,0.39803 -1.58622,1.18937 -1.18937,0.79252 -1.18937,0.79252 -2.77441,0.39803 -1.18937,-0.79488 -5.54764,-3.96378 -7.13504,-6.34488 0,0 -0.39685,0.39685 -1.18937,0.79252 -1.18937,0.39685 -1.98189,0.79252 -2.77559,-0.39567 -1.18819,-0.79252 -7.53071,-8.72126 -6.73819,-16.65 0,0 -0.79252,0 -2.37874,-0.39685 0,0 -0.39685,-0.39567 -0.79252,-1.18819 -0.39685,-2.37874 -1.58622,-7.92874 1.18937,-12.685 2.77441,-5.15433 2.77441,-9.11929 1.98189,-11.4969 -0.39685,-2.37756 -3.17244,-4.36063 -5.15433,-5.15315 -2.77441,-0.79252 -3.56693,-0.39685 -5.15315,0.39685 -1.58504,0.7937 -19.4244,11.0988 -28.1445,16.6488 -0.39685,2.37874 1.18937,3.17244 1.18937,3.17244 0,0 9.51378,6.73937 14.6681,28.1445 1.58622,6.34252 1.58622,20.6138 1.58622,20.6138 -1.18937,4.36063 -1.58622,10.7043 -1.58622,10.7043 0.0024,-0.39448 -0.394488,-0.79015 -0.394488,-1.18701 v 0 0 z m 9.51496,-9.5126 h 0.39685 -0.39685 z m 1.18937,0 c 0,0 -0.398031,0 -0.794882,0 0.39685,0 0.794882,0 0.794882,0 z m -3.17244,-1.19173 c 0,0 0.395669,0 0.395669,0.39803 0,-0.39803 -0.395669,-0.39803 -0.395669,-0.39803 z m 61.0488,-4.35827 v 0 0 z m 0,-0.39685 c 0,0.39685 0,0.39685 0,0.39685 0,0 0,0 0,-0.39685 z m 0,0 v 0 0 z m -0.39685,0 c -0.79252,-1.58622 -2.77323,-3.56811 -3.56575,-7.53425 -0.39685,-2.37874 -0.79252,-3.96142 -0.39685,-5.54764 -0.39685,1.58622 0,3.1689 0.39685,5.54764 0.79016,3.96614 2.77323,5.94921 3.56575,7.53425 v 0 0 z m -26.9563,-31.3157 c 5.15315,13.8732 15.4606,24.1807 15.4606,24.1807 0,0 -10.3075,-9.91063 -15.4606,-24.1807 z m -40.0382,10.7008 c -0.39685,-0.39685 -0.39685,-0.39685 -0.39685,-0.79252 0.79252,3.17126 1.58504,6.34488 1.58504,9.51496 0,-2.77441 -0.79252,-5.55 -1.18819,-8.72244 z m 17.8382,5.15433 c 0,0 0,0 0.39803,0 -0.39803,0 -0.39803,0 -0.39803,0 z m -1.18937,-0.39567 c 0.39803,0 0.39803,0 0.39803,0 0,0 0.001,0 -0.39803,0 z m 49.1587,-4.36181 c -0.39685,-5.94685 -2.37874,-11.1 -3.17126,-12.685 -0.79252,-0.79252 -0.39685,-1.18937 0,-1.18937 -0.39685,0 -0.79252,0.39685 0,1.18937 0.79016,1.5874 2.77441,6.73819 3.17126,12.685 0,0.39567 0,0.79252 0,0.79252 0,0 0,-0.39685 0,-0.79252 z m -1.98425,-13.8744 c 0.39685,0 0.79252,0 0.79252,0 0,0 -0.39685,0 -0.79252,0 z m -0.79252,0 c 0.39567,0 0.39567,0 0.39567,0 0,0 0,0 -0.39567,0 z m -78.4902,-8.72008 c 0,0 3.56693,0.39685 7.53307,5.15197 -3.96614,-4.36063 -7.53307,-5.15197 -7.53307,-5.15197 z m 38.8476,-21.0106 c 0,0 9.51496,5.15315 14.6669,26.1626 -5.15197,-21.0094 -14.6669,-26.1626 -14.6669,-26.1626 z m 35.2819,10.3063 c -1.18937,-2.77323 -4.7563,-8.32441 -13.0819,-11.8925 -0.39685,-0.39685 -1.18937,-0.79252 -1.98189,-1.18937 0.79252,0.39685 1.58622,0.79252 1.98189,1.18937 8.32441,3.56811 11.8925,9.11929 13.0819,11.8925 0,0.79252 0.39685,1.18937 0.39685,1.58622 -0.001,-0.39685 -0.39685,-0.7937 -0.39685,-1.58622 z m 63.8232,-7.53189 c 0.79252,0 1.18937,0 1.58622,0 -0.39685,0 -0.7937,0 -1.58622,0 z m -91.9677,-7.13504 c 0.79252,0 1.18819,0 1.98071,0 -0.79252,0 -1.18819,0 -1.98071,0 z m 23.7839,-11.4969 v 0 z m 0.7937,0 v 0 0 z m 1.58504,0 c -0.39685,0 -0.79252,0 -1.18937,0 0.39685,0 0.79252,0 1.18937,0 z"
   class="fil2"
   id="_196087736" />
   <path
   d="m 183.298,208.687 c -11.8949,-11.0988 -23.3906,-14.2713 -28.9382,-15.8563 14.6669,2.37874 24.5776,7.92756 33.6945,17.0457 10.3087,9.91063 15.0661,18.6307 20.2193,26.9563 -0.002,0 -13.4799,-17.0457 -24.9756,-28.1457 z"
   class="fil3"
   id="_196086512" />
   <path
   d="m 88.9488,255.069 c -5.15433,-21.4087 -14.6693,-28.1457 -14.6693,-28.1457 0,0 3.56693,0.79134 7.53425,5.15197 2.37756,2.77441 5.15315,7.92992 7.53071,15.4594 0,0.39685 0,0.39685 0,0.79252 0,0.39567 0,0.39685 0.39685,0.79252 0.39685,3.17244 1.18937,5.94567 1.18937,8.72362 1.18937,9.90945 -0.39685,17.8358 -0.39685,17.8358 0,0 0,-14.2701 -1.58504,-20.6102 v 0 z"
   class="fil3"
   id="_196087616" />
   <path
   d="m 33.0531,155.567 c 0,0 7.13504,13.0807 19.0276,21.802 11.8925,8.32441 3.17126,2.77559 19.0287,13.8744 10.3075,6.74055 13.0819,9.51378 13.0819,9.51378 l -9.90945,-5.94449 c 0,0 -9.91063,-5.94567 -20.2169,-13.4776 -13.8768,-9.91063 -21.0118,-25.7681 -21.0118,-25.7681 v 0 z"
   class="fil3"
   id="_194825568" />
   <path
   d="m 133.744,251.5 c -6.73937,-8.72008 -9.51496,-25.3701 -11.4969,-30.9201 -3.17126,-8.72008 -9.11811,-14.6669 -9.11811,-14.6669 0,0 9.51496,5.15433 14.6669,26.1638 0.39567,1.98071 1.18819,3.96378 1.98071,6.3437 5.15433,14.2713 15.4606,24.1819 15.4606,24.1819 0,0 -5.15079,-2.78031 -11.4933,-11.1024 v 0 z"
   class="fil3"
   id="_196085480" />
   <path
   d="m 142.069,12.8551 c 6.74055,2.77559 10.3087,8.72126 9.91181,16.65 0,8.72008 -4.36063,15.4594 -5.55,17.0457 -1.58504,1.58504 -3.56693,1.58504 -5.94331,0.395669 -2.77559,-0.79252 -5.94685,-2.37756 -10.7055,-2.37756 -4.36063,0 -8.72126,1.98189 -11.4957,4.7563 0,0 -6.73937,-0.39685 -11.4957,1.5874 -4.75748,1.58622 -6.34488,2.77559 -7.53189,3.56811 0,0 -4.7563,-0.39685 -9.11929,-2.37874 -5.15315,-2.77559 -16.6488,-10.3063 -16.6488,-21.4063 0,-11.4957 9.90945,-15.4594 15.8563,-15.0626 4.75748,0 8.72126,1.18819 13.0819,1.98071 3.96378,1.18937 7.13504,1.58622 9.51378,1.18937 2.77559,-0.398031 6.73937,-1.18937 9.91063,-3.17126 2.37874,-1.98189 7.13504,-3.56811 10.3063,-3.96378 3.9626,-0.398031 7.52953,0.394488 9.90945,1.18701 v 0 z"
   class="fil4"
   id="_196085144" />
   <path
   d="m 167.837,24.3508 c 8.32441,0 12.2882,3.96496 15.0638,11.8925 1.18937,3.56811 2.37874,9.91063 10.3063,11.4969 9.51378,2.37756 15.0638,5.15315 17.8382,9.90945 2.77559,3.96378 2.77559,9.91063 1.58622,13.4776 -1.18937,3.56811 -1.98189,5.94567 1.18937,9.11929 2.37874,2.77441 4.35827,7.53189 1.98189,13.4776 -1.98189,6.34252 -8.32677,11.4957 -19.8224,12.2882 -5.55,0.39685 -13.4776,-0.79252 -13.0819,-3.56811 0,-0.79252 0.79252,-1.58504 2.77441,-3.96378 1.58622,-1.58622 2.37638,-4.36063 2.77559,-6.73937 0.39449,-3.96378 -1.18937,-7.53189 -4.36063,-11.0988 -1.58622,-1.58622 -2.37874,-3.56811 -1.18937,-6.73937 1.18937,-3.17126 1.18937,-5.15315 1.18937,-9.11693 0,-4.75748 -3.17126,-11.1 -8.32677,-12.685 -6.73937,-1.98189 -13.8744,-1.18937 -19.4244,3.96378 0,0 -5.15315,-3.56811 -5.15315,-10.7031 0,-7.13622 7.13858,-21.0106 16.6535,-21.0106 v 0 z"
   class="fil4"
   id="_196084808" />
   <path
   d="m 205.892,114.736 c 3.17126,4.7563 3.56811,15.0638 -1.58504,22.9913 -7.13622,11.8925 -18.2339,11.1 -18.2339,11.1 -1.58504,16.6488 -15.8563,20.2181 -23.7862,20.2181 -21.0118,0 -21.802,-16.6488 -21.802,-18.6307 0,-1.5874 -0.79488,-1.98307 -1.58622,-1.18937 -5.15315,3.96496 -7.53425,11.1 -7.92992,17.4425 -0.39685,5.94567 1.18937,10.3063 1.98189,12.2882 3.56811,5.54764 8.32441,8.72126 19.4256,5.94449 10.7031,-2.77559 20.6138,-3.56575 29.7307,-2.37874 9.11811,1.5874 13.4776,-1.18701 15.0638,-5.94449 1.18937,-4.36063 4.7563,-7.92756 9.51378,-10.7031 12.685,-6.73937 10.7055,-17.0457 9.51614,-21.4063 -0.79252,-4.36063 1.97953,-6.73819 3.96142,-8.72008 7.1374,-8.32441 8.72362,-19.4244 3.96496,-25.3724 -4.75748,-6.34252 -13.8744,-4.7563 -18.6319,-3.96378 -2.77441,0.39567 -5.94449,1.58504 -7.13504,2.37756 0,10e-4 4.35945,0.7937 7.53189,5.94685 v 0 z"
   class="fil5"
   id="_196084448" />
   <path
   d="m 130.573,152.394 c -0.39685,5.55 -2.77559,22.5957 -11.8925,27.7512 -3.96378,2.37638 -12.6874,3.56575 -21.4087,0.39685 -8.32323,-3.17244 -12.685,-9.11811 -14.6657,-11.4969 -4.36181,-4.7563 -9.91063,-10.7031 -24.1819,-12.685 -13.0807,-1.98071 -24.9756,-7.53307 -22.5945,-22.2 1.58622,-12.2882 13.8744,-15.4606 20.6138,-15.0638 0.79252,0 2.77441,0.79488 3.17126,1.58622 1.58504,2.77441 5.55,7.92874 9.90945,10.7031 5.94685,3.56811 13.0819,4.7563 19.8224,4.7563 0,0 3.17244,13.8744 13.8744,18.6319 9.11693,3.9626 19.0264,2.37756 27.352,-2.37992 v 0 z"
   class="fil5"
   id="_196084112" />
   <path
   d="m 56.4437,33.8669 c 8.72008,0 21.4051,5.15315 23.3882,17.8382 0,0 -8.72126,-3.96378 -13.4776,1.98189 -3.96496,5.55 -1.18937,11.8925 -0.39685,15.4594 1.18937,3.56811 1.98189,6.73937 1.18937,9.51496 -0.79252,3.56693 -2.77559,5.55 -8.32441,9.11811 -5.15315,3.17244 -6.34252,8.32441 -6.74055,11.8925 -0.39685,6.34252 1.58504,13.0819 6.74055,16.65 0,0 -7.53189,2.77441 -15.4606,-0.39685 -9.11693,-3.56811 -13.8744,-11.0988 -13.8744,-20.2193 0,-9.51378 5.15433,-14.6669 7.13622,-16.6488 1.58504,-1.98189 3.56693,-5.15315 3.56693,-8.32441 0,-3.17126 -1.58622,-5.55 -2.37874,-7.1374 -1.58504,-2.77441 -3.17126,-7.53189 -1.58504,-14.2701 1.18701,-4.75748 7.13504,-15.4583 20.2169,-15.4583 v 0 z"
   class="fil5"
   id="_196083776" />
   <path
   d="m 71.5063,61.2189 c -1.58504,4.36181 -0.39685,6.73937 0.79252,10.3075 1.18937,3.17126 2.37874,7.92756 -3.17126,12.685 -5.94567,4.7563 -11.8925,8.32441 -11.4957,17.8382 0.79252,9.51378 7.53189,22.2 16.252,26.9575 7.13504,3.96378 12.2882,4.36063 17.4425,3.56693 0,0 4.7563,13.4799 15.0626,17.8406 7.53425,3.17244 19.0276,4.36063 29.3362,-4.36063 3.56811,-2.77441 7.92874,-11.0988 7.13622,-18.6307 0,0 -12.685,1.18937 -25.3701,-3.17126 -12.2894,-4.36181 -24.9768,-13.8768 -29.335,-25.3724 -3.96378,-11.1 -5.55,-28.5425 7.13504,-41.6232 0,0 -4.7563,-3.17126 -10.3063,-3.56693 -5.15433,-0.398031 -11.4969,1.97953 -13.4787,7.52953 v 0 z"
   class="fil5"
   id="_196083440" />
   <path
   d="m 153.168,62.8039 c -3.56693,-6.73819 -10.7043,-15.8563 -22.9937,-15.065 -3.56693,0 -8.72008,2.37874 -10.3063,4.7563 0,0 -5.94567,0 -9.91063,1.18937 -5.55,1.18937 -11.4957,4.7563 -15.0626,11.4957 -3.96496,7.13504 -5.55,12.2882 -5.55,19.0299 0,9.51378 5.15315,21.4063 14.2701,27.7488 1.58622,1.18937 1.98189,-0.39685 1.58622,-2.77559 -0.39803,-2.37756 -1.98189,-13.0819 2.77559,-22.9913 5.54764,-11.4957 15.4594,-18.6307 26.1626,-21.8031 6.3437,-2.37756 15.065,-2.37756 19.0287,-1.58504 v 0 z"
   class="fil4"
   id="_196083104" />
   <path
   d="m 131.763,68.3539 c -9.51496,4.36181 -22.5957,16.65 -23.3882,32.1106 -0.79252,13.8744 5.15315,22.2 23.7839,22.9925 18.6307,0.79252 36.8681,-11.8925 37.6606,-12.2882 0.79134,-0.79488 0.39685,-1.58622 -1.58622,-1.18937 -1.98071,0.39685 -15.0626,1.98189 -22.5969,1.58504 -7.53189,0 -16.2531,-2.37756 -19.8201,-8.32323 -4.36063,-6.34488 -5.54882,-17.4449 5.94685,-34.8874 v 0 z"
   class="fil5"
   id="_196082768" />
   <path
   d="m 161.096,72.7157 c 5.15315,5.94567 4.36063,14.2713 -0.79252,22.9913 -5.15079,9.11693 -12.2882,11.4957 -16.6488,11.0988 -4.75512,-0.39685 -6.73937,-1.18937 -8.72126,-1.98189 0,0 8.32441,-0.79252 13.4776,-6.73819 3.56811,-4.36181 3.17126,-9.91063 1.18937,-13.4776 -1.58622,-2.37874 -3.56811,-3.96496 -5.15315,-5.15433 -3.56811,-1.98189 -10.3075,-3.17126 -14.2713,-1.58504 0,0 5.94567,-10.3075 17.4413,-10.3075 5.55,0 9.91181,1.58504 13.4787,5.15433 v 0 z"
   class="fil5"
   id="_196082432" />
   <path
   d="m 130.573,79.4539 c -2.77559,2.37756 -4.36063,6.34488 -4.75512,9.51496 -0.39803,4.36063 1.18937,8.32441 4.75512,10.3075 3.56693,1.98071 9.91181,1.18819 12.685,-1.58622 3.17126,-2.77559 3.17126,-6.34252 2.77441,-7.53189 0,-1.98189 -1.58504,-3.96378 -4.35827,-3.17126 -1.98425,0.39685 -3.96378,0.39685 -5.15315,0 -1.58858,-0.398031 -4.75866,-1.58622 -5.94803,-7.53307 v 0 z"
   class="fil5"
   id="_196082096" />
   <path
   d="m 175.763,55.2732 c 5.15315,2.77441 5.94567,8.32323 4.36063,14.2701 -1.58622,5.94567 -2.37874,8.32441 1.58622,13.4776 3.56693,5.15315 1.98189,12.2882 0,15.4606 -2.37874,2.77441 -7.1374,8.32441 -16.65,9.11693 -9.51142,0.7937 -11.0988,-0.39685 -11.0988,-0.39685 0,0 6.73937,-4.36063 11.4957,-12.6862 3.17244,-5.15433 4.75748,-11.4969 3.17244,-17.4425 -2.37874,-8.32441 -11.1024,-10.7031 -15.0638,-10.7031 0,0 1.98189,-7.53189 7.53189,-10.3063 5.55,-2.3752 11.4945,-2.3752 14.6657,-0.790157 v 0 z"
   class="fil4"
   id="_196081760" />
   <path
   d="m 145.24,123.852 c 1.18937,3.17244 2.77441,7.53307 0,14.2724 -2.77559,5.55 -3.56575,15.0626 3.56693,21.802 6.74055,6.73937 17.8382,5.15315 22.5957,2.77559 5.55,-2.77559 7.53425,-7.92874 8.72244,-13.8768 0.39685,-2.77559 1.98189,-3.96378 5.55,-3.96378 3.56693,-0.39685 10.3075,-1.18937 15.0638,-8.72126 3.56575,-5.94567 5.15079,-14.2713 1.18937,-20.2169 -3.96378,-6.74055 -15.0638,-8.32441 -19.8224,-7.92874 -2.77559,0.39685 -4.7563,1.18937 -6.74055,2.77559 -1.58386,1.5874 -12.287,11.498 -30.1252,13.0819 v 0 z"
   class="fil5"
   id="_196081424" />
   <g
   id="g899">
    <path
   d="m 208.271,236.832 c -5.15079,-8.32441 -9.91063,-17.0457 -20.2193,-26.9563 -9.11693,-9.11929 -19.0276,-14.6669 -33.6945,-17.0457 -1.98189,-0.39685 -11.498,-2.77559 -11.498,-2.77559 1.18937,0 2.37874,0 3.96496,0 1.18819,-0.39567 2.37756,-0.39567 3.96378,-0.79252 8.72126,-1.98189 15.0638,-3.17126 22.5945,-3.17126 7.1374,0 25.3724,0.39685 40.4362,19.0299 0.39685,0.39685 1.58622,2.77441 1.18937,3.17126 -0.39685,0.39685 -1.18937,0.39685 -2.77559,0.39685 0,0 5.15433,7.92874 6.34252,16.6488 0.39803,1.18937 0,1.98189 -1.18701,1.98189 -1.18819,0 -3.17126,-0.39685 -3.17126,-0.39685 0,0 3.56811,10.7043 1.98189,23.3894 0,0.79252 -0.39685,1.58504 -1.18937,1.58504 0.001,0 -3.56693,-9.51378 -6.73819,-15.065 v 0 z"
   class="fil6"
   id="_196081064" />
    <path
   d="m 88.9488,286.384 c 0,0 0.395669,-6.34488 1.58504,-10.7043 0,0 2.77559,-13.4776 -1.18937,-28.1457 -5.55,-19.4244 -15.065,-20.6126 -15.065,-20.6126 0,0 -1.58622,-0.79252 -1.18937,-3.17244 0,0 0,1.98189 11.4957,2.37874 9.91063,0.39685 17.4425,1.58386 21.8031,11.4957 3.56693,7.53189 2.37756,13.4776 2.37756,15.4606 0,1.18819 -0.79252,1.58504 -1.58504,1.18819 -0.79252,-0.39567 -0.79252,-0.39567 -0.79252,0.79252 0,1.58622 -0.39685,13.8744 -6.73937,20.2169 -1.18937,1.18937 -1.58622,0.79252 -3.56811,-0.79252 0,0 -4.7563,9.11929 -5.55,11.1012 -0.398031,0.79252 -0.79252,1.18937 -1.18819,1.18937 l -0.394488,-0.39567 v 0 z"
   class="fil6"
   id="_196080728" />
    <path
   d="m 29.0894,150.412 c 0,0 1.18937,-0.7937 1.98189,0.39685 1.18937,1.18937 3.17126,3.17244 7.53189,4.75748 3.17126,1.18819 6.34252,1.98071 11.4957,2.37756 6.73937,0.39685 17.0457,3.17244 22.9913,7.1374 3.96378,2.37874 10.3063,9.11811 12.2882,15.4606 1.18937,4.35827 1.58622,9.51378 1.18937,12.2882 -0.39685,2.77441 -0.79252,7.92756 0.79252,10.7031 l -3.17126,-2.77559 c 0,0 -2.77559,-2.77205 -13.0819,-9.51378 -14.2713,-9.90945 -9.11811,-6.74055 -19.0299,-13.8744 -2.37874,-1.98189 -11.4957,-8.72008 -19.0276,-21.802 -0.788976,-0.7937 -2.77087,-4.36299 -3.96024,-5.15551 v 0 z"
   class="fil6"
   id="_196080368" />
    <path
   d="m 145.24,262.598 c 0,0 -13.4776,-13.4776 -17.4425,-30.5232 -5.15079,-21.0094 -14.6657,-26.1626 -14.6657,-26.1626 -1.18937,-1.18937 -1.98189,-3.17244 -0.39685,-3.96496 0,0 14.2724,-1.58504 22.5945,2.37874 8.32441,3.56811 11.8925,9.11929 13.0819,11.8925 0.39685,1.98189 0.39685,2.37874 -1.58622,2.77441 -1.98071,0 -2.37756,0.39685 -0.39567,1.98189 1.98071,1.58504 7.53307,7.1374 8.72244,12.685 0,1.98189 0,1.98189 -1.58622,1.98189 -1.18819,-0.39685 -1.98071,0 -1.18819,1.18937 0.79252,1.58622 2.77441,6.73937 3.17126,12.685 0,1.98189 0,2.37874 -1.18937,2.77559 -1.18937,0.39567 -2.77441,2.77441 -1.18937,9.90945 0.79252,3.96378 2.77323,5.94567 3.56693,7.53425 0.79252,0.79252 0.79252,1.58504 0.39567,1.98189 0,0 -5.94567,-2.37756 -11.8925,-9.11929 v 0 z"
   class="fil6"
   id="_196080032" />
   </g>
  </g>
 </g>
</svg>
