<?xml version="1.0" encoding="UTF-8" standalone="no"?>
<svg
   xmlns:dc="http://purl.org/dc/elements/1.1/"
   xmlns:cc="http://creativecommons.org/ns#"
   xmlns:rdf="http://www.w3.org/1999/02/22-rdf-syntax-ns#"
   xmlns:svg="http://www.w3.org/2000/svg"
   xmlns="http://www.w3.org/2000/svg"
   viewBox="0 0 853.33331 604"
   height="604"
   width="853.33331"
   xml:space="preserve"
   id="svg2"
   version="1.1"><metadata
     id="metadata8"><rdf:RDF><cc:Work
         rdf:about=""><dc:format>image/svg+xml</dc:format><dc:type
           rdf:resource="http://purl.org/dc/dcmitype/StillImage" /></cc:Work></rdf:RDF></metadata><defs
     id="defs6" /><g
     transform="matrix(1.3333333,0,0,-1.3333333,0,604)"
     id="g10"><g
       transform="scale(0.1)"
       id="g12"><path
         id="path14"
         style="fill:#000000;fill-opacity:1;fill-rule:nonzero;stroke:none"
         d="m 3003.2,3728.13 -92.5,-856.41 131.92,45.35 800.23,-544.41 c -27.85,-13.98 -55.9,-27.58 -83.55,-41.02 l -957.46,501.02 -26.84,864.18 c 74.3,11.21 150.66,21.68 228.2,31.29 m -463.04,-72.31 c -77.62,-15.43 -151.25,-32.42 -220.16,-51.29 l -10.08,-982.77 993.52,-507.46 c 36.95,17.58 75.08,35.43 113.9,53.87 l -861.71,566.91 -137.35,-61.33 121.88,982.07 m 215.23,37.89 c -67.38,-10.54 -133.01,-21.83 -196.21,-34.14 l -3.55,-924.41 985.31,-508.55 c 32.19,15.35 65.19,31.05 98.24,46.95 l -837.42,559.1 -137.58,-48.48 91.21,909.53 m 658.05,79.15 c -60.47,-5.94 -121.14,-12.04 -181.6,-18.6 l 43.16,-763.12 -131.99,-42.54 68.63,803.36 c -63.36,-6.76 -126.37,-13.91 -188.83,-21.64 l 19.81,-813.4 930.62,-479.1 c 26.64,13.51 53.32,27.11 80.08,40.93 l -773.98,512.5 876.56,-458.75 c 26.17,13.87 52.15,27.86 78.24,41.96 l -731.01,492.11 -133.36,-45.43 43.67,751.72 m 209.96,20.39 c -62.19,-5.94 -125.12,-11.96 -188.32,-18.17 l 68.05,-708.36 823.75,-441.05 c 23.35,13.16 46.79,26.52 70,39.84 l -696.02,470.12 -114.69,-40.7 37.23,698.32 M 1196.88,3088.13 C 1079.57,3015.86 983.52,2951.14 916.09,2904.11 L 887.109,1731.84 c 0,0 -225.308,-161.68 -310.16,-233.2 -84.679,-71.33 -239.918,-217.35 -239.918,-217.35 l 0.078,-289.45 c 0,0 187.621,259.45 319.063,382.69 128.008,120.04 293.359,255.59 293.359,255.59 l -30.23,43.71 1045.619,-472.73 c 16.8,16.25 57.5,55.39 116.17,108.9 l -906.64,593.83 -141.4,-113.2 163.83,1297.5 m 285.27,165.47 c -93.4,-50.71 -180.12,-101.17 -258.44,-148.99 l -49.26,-1200.78 1060.2,-458.63 c 38.24,32.46 78.9,66.44 121.95,101.17 l -888.98,577.19 -141.72,-103.2 156.25,1233.24 m 2353.32,559.96 c -62.93,-6.13 -127.31,-12.23 -192.38,-18.44 l 57.77,-659.57 785.55,-418.05 c 25.11,14.85 50.15,29.96 74.8,45.2 l -656.68,441.87 -123.16,-43.82 54.1,652.81 M 2299.22,3598.83 c -5.12,-1.6 -10.55,-2.97 -15.63,-4.41 -76.87,-22.23 -153.16,-48.17 -228.47,-76.45 l -24.65,-1042.11 1019.37,-482.65 c 38.91,18.94 79.77,38.63 122.82,59.18 l -862.66,569.37 -146.95,-74.57 136.17,1051.64 m -262.27,-87.65 c -89.8,-34.15 -177.77,-71.49 -262.81,-110.82 l -25.47,-1090.63 -143.44,-91.8 149.38,1173.17 c -87.81,-41.1 -172.58,-83.91 -252.73,-126.99 l -34.26,-1140.63 1031.17,-466.45 c 37.62,28.13 75.94,55.98 114.92,83.17 l -864.88,566.64 1014.96,-467.81 c 40.35,25.08 80.7,48.36 120.7,69.92 2.46,1.25 5.16,2.62 7.62,3.98 l -861.72,562.85 -145.23,-83.16 151.79,1118.56 m 3039.46,568.55 c -53.01,-21.91 -108.71,-43.32 -166.72,-63.79 l 1.44,-377.62 487.42,-105.23 c 27.19,41.05 52.93,82.3 77.23,123.16 l -369.8,104.3 -95.24,-61.64 65.67,380.82 m -185.16,-70.51 c -56.72,-19.69 -116.09,-38.55 -177.42,-56.29 l -3.71,-418.98 563.16,-173.44 c 23.01,29.06 45.12,58.63 66.52,88.01 l -428.75,189.73 -98.28,-51.45 78.48,422.42 m 536.8,239.96 c -45.28,-25.07 -94.22,-50.97 -146.76,-76.72 l -2.74,-280.7 -94.8,-74.57 80.55,347.03 c -53.6,-26.05 -110.67,-51.95 -171.17,-77.46 l 12.65,-326.37 415.59,-24.57 c 23.01,41.72 44.76,83.09 64.88,123.44 l -302.11,35.67 339.49,42.3 c 18.36,38.98 35.08,77.03 50.55,113.87 l -230.59,-14.61 -70.5,-64.3 54.96,276.99 m -730.51,-300.93 c -27.03,-7.74 -54.61,-15.28 -82.66,-22.66 -32.54,-8.32 -67.5,-16.06 -104.65,-23.63 l -1.68,-460.39 -0.78,-0.36 634.3,-232.53 c 22.07,23.35 43.48,47.1 64.3,70.89 l -496.25,254.46 -98.71,-46.37 86.13,460.59 m 1135.19,574.49 c 0,0 -27.34,-24.73 -80.35,-64.53 l -21.72,-102.27 -43.32,-54.45 23.52,126.21 c -27.7,-19.81 -60.12,-42.23 -96.91,-66.33 l -23.01,-173.36 -47.66,-53.01 45.55,210.24 c -42.74,-27.35 -90.98,-56.49 -144.14,-86.64 l -1.1,-222.19 263.71,95.98 c 13.83,35.66 26.57,69.57 38.05,101.68 l -136.25,-26.84 158.67,91.95 c 45.78,136.49 64.96,223.56 64.96,223.56 m -1779.84,-686.6 c -63.51,-7.03 -129.18,-13.75 -196.09,-20.39 l 47.73,-611.18 755.78,-379.64 c 25.43,16.32 50.63,32.81 75.35,49.37 l -619.14,409.53 -121.79,-46.56 58.16,598.87 m 253.59,-478.68 -1.01,0.59 1.21,-0.51 -0.2,-0.08 m -18.75,507.74 c -68.55,-9.69 -140.89,-18.52 -216.48,-26.84 l 45.16,-554.53 704.25,-351.13 c 17.43,12.26 34.57,24.57 51.57,37.03 9.25,6.72 18.51,13.59 27.54,20.39 l -593.36,367.42 -105.47,-41.09 86.79,548.75 m 219.97,-424.06 -0.51,0.23 0.51,-0.23 v 0 m -17.07,457.11 c -56.22,-10.9 -117.11,-20.9 -182,-30.08 l 1.1,-509.34 -3.05,-1.29 685.31,-292.58 c 23.28,20.04 45.86,40.59 68.13,61.57 l -552.42,314.68 -102.07,-44.18 85,501.22" /><path
         id="path16"
         style="fill:#000000;fill-opacity:1;fill-rule:evenodd;stroke:none"
         d="m 6237.85,819.422 h 12.35 l 33.2,-60.981 h 33.63 l -37.11,63.438 c 25.39,1.133 41.02,11.051 41.02,38.48 0,34.641 -23.13,45.032 -61.76,45.032 h -54.96 v -146.95 h 33.63 m 0,87.379 v 33.321 h 20.55 c 10.82,0 26.76,-0.86 26.76,-15.032 0,-15.039 -6.8,-18.289 -19.34,-18.289 z m 21.68,-149.371 c 72.35,0 140.47,49.262 140.47,135.192 0,86.058 -68.2,135.238 -140.47,135.238 -72.69,0 -140.58,-49.18 -140.58,-135.238 0,-85.93 67.89,-135.192 140.58,-135.192 z m 95.63,135.192 c 0,-60.7 -43.48,-101.711 -95.63,-101.711 -53.16,0 -95.62,41.011 -95.62,101.711 0,60.668 42.46,101.609 95.62,101.609 52.15,0 95.63,-40.941 95.63,-101.609" /><path
         id="path18"
         style="fill:#000000;fill-opacity:1;fill-rule:nonzero;stroke:none"
         d="m 4681.29,449.461 h -246.88 v 59.449 c 0,32.969 -16.83,54.879 -53.94,54.879 -37.11,0 -53.91,-21.988 -53.91,-54.879 V 195.941 c 0,-32.851 16.8,-54.882 53.91,-54.882 37.11,0 53.94,22.031 53.94,54.882 v 71.45 h 246.88 c 0,-144.571 -47.38,-261.68006 -300.82,-261.68006 -258.28,0 -308.4,98.66806 -309.22,346.82806 0,267.891 65.82,346.723 308.2,346.723 249.03,0 301.84,-98.871 301.84,-249.801 M 2517.66,25.9805 c 164.49,0 211.83,85.9805 211.83,168.1605 0,111.8 -70.58,150.937 -172.85,164.687 95.7,16.41 159.84,54.883 159.84,161.883 0,103.469 -56.64,158.398 -244.25,158.398 l -347.39,-1.757 h -51.13 V 636.84 c 3.83,-0.512 7.81,-0.942 11.99,-1.879 5.94,-1.281 12.39,-3.242 18.25,-6.641 10.97,-6.09 19.45,-17.07 20.89,-35.148 V 25.8984 h 392.82 z M 2423.05,292.93 c 30.58,0 51.95,-16.399 51.95,-56.641 0,-40.348 -19.53,-75.078 -56.64,-75.078 h -50.2 V 292.93 Z m -54.89,250.82 h 50.2 c 31.6,0 51.13,-27.539 51.13,-60.469 0,-32.89 -19.45,-60.39 -51.13,-60.39 h -50.2 V 543.75 M 2830.39,25.9805 h 466.33 V 181.41 h -215.7 v 497.809 l -250.63,-2.149 h -51.91 v -40.351 c 3.82,-0.578 7.81,-1.09 11.87,-1.949 6.06,-1.329 12.42,-3.282 18.2,-6.598 12.08,-6.801 21.14,-19.031 21.33,-40.203 l 0.39,-40.578 V 25.9805 m -2064.02,0 h 466.37 V 181.41 H 1016.99 V 679.219 L 766.25,677.07 h -51.871 v -40.351 c 3.82,-0.578 7.812,-1.09 11.871,-1.949 6.051,-1.329 12.422,-3.282 18.16,-6.598 12,-6.801 21.102,-19.031 21.25,-40.203 l 0.512,-40.578 V 25.9805 m 540.078,0 h 466.37 V 181.41 h -215.55 v 497.809 l -250.82,-2.149 h -51.72 l -0.08,-40.351 c 3.83,-0.578 7.82,-1.09 12,-1.949 5.93,-1.329 12.38,-3.282 18.24,-6.598 11.87,-6.801 20.9,-19.031 21.13,-40.203 l 0.43,-40.578 V 25.9805 M 6115.23,502.191 c 0,108.629 -53.78,202.739 -295.5,202.739 -192.62,0 -294.53,-68.871 -294.53,-228.719 0,-242.652 353.04,-146.91 353.04,-293.941 0,-32.54 -24.53,-57.579 -58.51,-57.579 -21.64,0 -33.95,9.059 -41.33,24.098 -7.66,15.902 -9.61,37.231 -10.55,63.281 H 5517.73 C 5506.33,21.4883 5674.41,0 5837.73,0 c 161.49,0 293.56,54.8516 293.56,230.672 0,240.859 -354.88,167.418 -354.88,291.047 0,25.16 17.93,49.301 45.27,49.301 26.6,0 41.45,-6.559 48.95,-18.52 7.73,-12.141 9.41,-28.898 9.41,-50.309 h 235.19 M 3748.98,254.531 h -99.45 l 51.13,289.61 z M 3352.38,25.9805 h 258.09 l 18.79,102.3395 h 137.34 l 18.6,-102.3395 h 256.4 L 3870.63,679.219 H 3465.31 V 638.68 c 3.75,-0.508 7.82,-1.102 11.92,-1.961 6.01,-1.328 8.67,-2.11 14.61,-5.348 11.29,-6.519 15.97,-19.609 11.79,-39.73 L 3352.38,25.9805 M 396.449,254.531 h -99.258 l 51.047,289.61 z M 0,25.9805 H 258.129 L 276.801,128.32 h 137.418 l 18.59,-102.3395 h 256.41 L 518.359,679.219 H 112.969 V 638.68 c 3.832,-0.508 7.73,-1.102 11.871,-1.961 6.058,-1.328 8.68,-2.11 14.539,-5.348 11.48,-6.519 15.973,-19.609 11.871,-39.73 L 0,25.9805 M 4722.93,682.27 v -41.52 c 3.75,-0.43 7.81,-1.141 11.87,-1.801 6.14,-1.371 12.43,-3.238 18.29,-6.719 11.95,-6.718 20.97,-19.101 21.21,-39.921 l 0.93,-40.239 V 29.9609 h 250.9 V 218.602 l 54.1,53.589 140.67,-242.4605 h 265.58 L 5243.98,433.68 5497.42,682.621 H 5204.34 L 5025.7,501.371 v 181.84 l -302.77,-0.941" /></g></g></svg>