<svg xmlns="http://www.w3.org/2000/svg" width="475" height="274" fill="none" xmlns:v="https://vecta.io/nano"><g clip-path="url(#A)"><path d="M405.815 55.103c11.198 1.687 17.181 6.29 21.016 10.861-1.442-5.768 0-12.886 5.768-16.23a14.02 14.02 0 0 1 6.627-1.626c3.712 0 7.179 1.258 10.37 2.608 2.547 1.135 5.001 2.455 7.486 4.05.522-1.135.951-2.332 1.197-3.221.583-2.332-1.626-4.203-4.111-5.001-1.565-.522-2.7-1.872-2.915-3.498l-.368-2.608c-.368-2.639-5.431-7.056-27.398-13.254l-1.933-.552a4.21 4.21 0 0 1-2.577-2.056c-.215-.368-.338-.614-3.007-8.744-.245.215-.429.46-.583.675-2.055 2.976-1.196 8.867-.736 10.708.122.491.153 1.012.123 1.503-.062.644-.277 1.442-.706 2.27h.767c1.902 0 3.62 1.258 4.142 3.099s-.184 3.804-1.81 4.817c-.092.061-8.683 5.645-10.984 13.868-.276.982-.368 1.78-.368 2.332zm-88.269 138.37h.552 7.548c-.276-.89-.276-1.841.061-2.731h-.061c-1.043 0-2.086-.398-2.853-1.104l-4.357-3.774c-9.235-7.946-14.88-13.07-14.88-18.101 0-1.258.552-2.424 1.503-3.253.092-.061 7.64-6.719 9.48-14.88l-2.976.031c-2.301 0-4.909-.062-7.332-.154-2.608 7.793-5.124 16.384-5.124 18.562 0 3.13 4.848 8.284 8.744 12.426 3.835 4.05 7.425 7.854 9.112 11.843.276.644.46.982.583 1.135zm-148.495-31.478c.675 1.564 3.743 5.522 6.014 8.467 5.277 6.842 11.873 15.31 14.143 23.072h9.91c-.307-1.073-.215-2.239.307-3.252.031-.061.092-.153.123-.215-.583-.061-1.197-.092-1.841-.092-.92 0-1.81-.306-2.547-.828-4.418-3.283-12.732-19.268-16.107-25.987-.552-1.073-.614-2.362-.153-3.467.429-1.135 1.35-2.024 2.485-2.454.951-.368 23.409-9.388 23.409-35.467 0-16.966 9.051-25.956 26.171-25.956h1.227c1.258.031 2.547.153 3.805.368 7.731 1.074 17.886 4.51 29.668 8.468 9.542 3.222 20.372 6.873 31.509 9.757 2.424.644 4.817 1.196 7.149 1.718-.645-2.087-1.043-4.296-1.166-6.597-.092-1.35.399-2.669 1.319-3.651a4.93 4.93 0 0 1 3.559-1.534c1.258 0 2.455.461 3.344 1.35 3.13 2.976 14.328 12.733 27.337 14.328h.951a17.72 17.72 0 0 1 3.375.338c12.794 2.516 17.917 18.715 19.175 23.624l52.127 49.58h9.695c2.27-.859 2.547-2.056 2.577-2.301v-.399l-3.375.767a4.27 4.27 0 0 1-1.073.123c-1.105 0-2.179-.43-2.976-1.197l-44.273-42.554c-1.534-1.473-1.749-3.896-.491-5.614 1.135-1.535 3.559-3.345 6.658-3.345 1.166 0 2.332.246 3.436.706l-2.914-5.124c-16.568-29.054-35.375-62.006-54.674-76.671-1.534-1.166-2.117-3.222-1.38-5.032.675-1.626 2.239-2.669 3.988-2.669h.522c14.665 1.749 30.067 15.555 46.911 42.063 1.871-5.921 3.497-12.61 5.062-19.175 2.209-9.266 4.295-18.01 7.118-24.33.276-.736.644-1.534 1.105-2.27 3.589-6.013 7.977-9.726 12.057-11.996-.368-.245-.706-.522-1.012-.859-1.749-1.81-2.7-4.756-3.068-7.67-1.228-.092-2.7-.153-4.449-.153-32.491 0-72.192 21.139-72.591 21.354-.644.337-1.319.522-2.025.522-.429 0-.828-.061-1.227-.184-10.094-3.037-19.022-4.479-28.073-4.479-9.848 0-19.298 1.687-30.221 3.62-15.769 2.823-35.375 6.32-64.828 6.32-50.501 0-82.777 43.843-108.702 79.065-17.611 23.9-31.509 42.799-47.341 42.799-11.812 0-18.869-7.639-18.869-20.433 0-4.602 1.626-10.186 4.848-16.537.215-.46-.061-.859-.153-.92-2.209 0-9.204 1.288-9.204 17.887 0 19.236 12.978 22.12 20.71 22.12 20.341 0 43.321-29.821 63.571-56.115 18.04-23.44 33.626-43.658 47.616-43.658 1.78 0 3.375 1.105 4.02 2.761 2.761 7.333 6.749 15.494 10.584 23.379 7.088 14.573 13.776 28.318 13.776 37.982 0 8.99-3.099 14.359-5.154 17.918-.522.89-1.197 2.086-1.381 2.669m-60.196 26.815l.675.338a25.66 25.66 0 0 1 1.688.889c2.117 1.166 5.829 3.222 10.37 3.713 0-.123.031-.246.092-.368-6.044-4.234-13.162-11.72-13.162-27.245 0-1.503.798-2.915 2.117-3.682 18.04-10.707 27.613-23.992 28.993-40.376-8.836 12.518-19.697 21.784-27.49 28.442-3.467 2.976-7.701 6.596-8.928 8.375 4.265 12.825 5.032 22.121 5.584 28.963l.092.982-.031-.031zm302.82 19.759c-1.902 0-3.682-.706-5.093-2.025l-2.669-2.485c-44.825-41.634-52.219-49.458-53.569-51.636-.921-1.473-1.565-3.191-2.363-5.216l-.951-2.424-1.165.184c-3.836 12.15-16.537 21.354-22.858 25.343 1.626 1.687 4.418 4.172 6.627 6.136 8.714 1.319 23.011 7.517 23.011 23.256 0 4.97-4.05 8.836-9.204 8.836h-5.615c-1.043 0-2.055-.246-2.945-.736-1.074.46-2.301.736-3.743.736h-15.034c-5.921 0-9.91-2.761-11.781-8.161-1.504-4.357-5.615-8.744-9.573-12.947-5.492-5.83-10.677-11.352-10.677-18.071s2.915-15.924 4.909-21.63c-3.681-.89-6.535-2.025-10.308-3.559l-2.056-.829c-9.174-3.681-21.845-8.437-33.043-12.61l-22.52-8.529v.675c0 25.036-16.568 38.474-23.9 43.199 1.503 3.681 3.743 8.099 6.044 10.431 12.855 1.902 21.108 10.125 22.182 22.182.245 2.608-.614 5.185-2.301 7.057-1.687 1.841-4.05 2.853-6.719 2.853h-3.805a6.64 6.64 0 0 1-3.466-.951c-1.197.583-2.608.951-4.234.951h-17.826c-5.615 0-10.922-4.172-12.334-9.726-1.84-7.302-8.314-14.634-13.499-20.494-5.308-6.014-9.143-10.37-9.143-14.911 0-3.436 1.779-5.676 3.221-7.486.798-.982 1.627-2.025 2.301-3.467-8.375 7.977-20.556 16.107-34.055 20.985.982 5.83 4.97 8.039 9.848 10.769 5.093 2.823 11.414 6.351 11.414 14.881 0 5.185-4.296 9.265-9.788 9.265-1.932 0-3.497-.307-4.663-.644-1.81.583-4.265.89-7.455.89-10.954 0-20.741-5.369-22.858-6.627-4.479-1.719-5.614-5.339-5.737-8.1-1.197-22.888-6.105-32.951-6.167-33.043-.276-.553-.43-1.136-.46-1.749-16.476 18.316-34.24 33.196-51.544 33.196-26.723 0-36.234-19.789-36.234-36.755 0-23.256 12.518-33.657 24.913-33.657h.43c5.124.092 9.757 2.915 12.334 7.578 2.761 4.97 2.639 11.076-.307 15.954-1.779 2.915-2.669 5.738-2.669 8.315 0 5.4 1.78 5.798 4.479 5.798 9.235 0 21.047-16.567 34.7-35.743 25.987-36.479 61.607-86.458 121.495-86.458 29.7 0 47.924-3.682 62.559-6.658 10.646-2.148 19.819-4.019 30.527-4.019 8.744 0 17.703 1.258 28.073 3.896 7.793-3.559 44.487-19.482 78.604-19.482 2.178 0 4.295.061 6.351.184 3.62-5.921 9.266-11.291 21.231-11.291a4.27 4.27 0 0 1 4.05 2.884c.706 2.056 2.547 7.179 3.804 10.155 6.413 2.025 11.997 4.265 17.028 6.873 9.665 5.246 15.003 10.922 15.954 16.966 4.909 2.884 8.499 6.412 10.861 10.738.951 1.749.583 3.927-.889 5.246-.369.337-1.473 1.411-2.578 2.455l-1.288 1.258c-.951 2.608-2.087 4.97-3.498 7.21-.583.89-1.626 2.547-3.497 3.59a8.27 8.27 0 0 1-4.234 1.166c-.369 0-.737 0-1.136-.092-1.288.951-2.976 1.872-5.123 2.485v.061c-.583 2.7-1.626 4.847-2.731 6.443 0 1.104-.337 2.148-1.074 2.976-2.423 2.761-4.786 4.51-7.424 5.553-2.087.89-4.326 1.35-6.597 1.35-5.891 0-11.628-3.16-15.34-8.437-2.639-3.743-5.461-5.676-8.744-7.057-5.768 4.418-14.727 21.569-19.728 31.111l-3.467 6.565c8.345 15.034 15.923 30.835 22.06 43.628l8.437 17.274 6.351 6.228c2.239-.552 5.614-1.227 8.652-1.227 10.186 0 16.506 5.43 16.506 14.174 0 4.265-1.105 8.959-2.056 11.659-1.472 4.172-5.768 7.179-10.431 7.302h-2.455c-1.319 0-2.546-.338-3.559-.921-1.411.553-3.16.921-5.277.921h-13.683l.184.031z" fill="#fff"/><g fill="#ffce00"><path d="M144.23 107.475l-.521-3.252-1.442 2.976c-8.836 18.071-23.747 30.834-33.626 39.271-6.873 5.891-11.045 9.45-11.045 12.456v.185l.061.153c4.449 12.886 5.216 22.213 5.768 29.024l.123 1.289c.215 2.485 1.933 3.62 3.774 4.448.214.092.613.154.92.43 9.542 9.388 23.778 4.418 23.778 4.418.644 0 1.227-.338 1.595-.859.337-.552.399-1.197.153-1.78-.797-1.748-2.761-2.822-5.277-4.142-5.768-3.068-14.45-7.639-14.634-25.342 24.207-14.543 34.423-34.485 30.404-59.245m192.246 81.673c-3.314-2.301-6.996-3.621-10.432-3.713-1.288-1.165-2.669-2.331-4.142-3.589-5.246-4.51-12.303-10.585-12.978-13.623 2.117-1.932 11.322-11.045 11.322-22.059 0-.399 0-.798-.062-1.197l-.092-1.073-1.074.122c-1.779.215-4.387.307-7.516.307a187.9 187.9 0 0 1-10.278-.307l-.798-.061-.276.767c-.276.767-6.474 18.5-6.474 23.379 0 5.277 5.185 10.769 10.217 16.076 3.497 3.682 6.78 7.18 8.069 10.248 1.411 3.283 2.914 4.418 6.044 4.418h12.211c1.135 0 2.117-.921 2.117-2.025 0-1.227-.246-2.24-.552-3.068 1.84.767 3.528 2.393 3.528 4.05v1.043h5.001c.644 0 1.258-.307 1.687-.828.399-.522.522-1.197.368-1.811-.583-2.209-2.853-4.909-5.89-7.056z"/><path d="M456.438 41.665l-.276-1.964c-1.289-9.235-20.771-14.727-31.233-17.672-.491-.153-.951-.276-1.381-.399l-3.866-11.689-.276-.828-.859.092c-3.344.368-5.891 1.81-7.578 4.234-3.59 5.216-1.933 13.285-1.565 14.819-.153.491-.828 1.933-3.988 1.933-.092 0-.215-.092-.368-.215-.951-.982-1.872-4.142-1.749-7.762v-.92l-.89-.153c-1.657-.276-4.51-.614-8.713-.614-32.062 0-70.474 19.544-74.739 21.783-24.391-7.271-39.486-4.571-60.379-.859-15.556 2.761-34.915 6.228-63.878 6.228-23.655 0-45.499 8.959-66.761 27.398-18.286 15.862-33.135 36.05-46.236 53.845-16.046 21.814-29.914 40.621-43.045 40.621-11.751 0-13.5-9.45-13.5-15.095 0-4.694 2.332-10.278 4.265-14.113a6.2 6.2 0 0 0-.245-5.983c-1.012-1.657-2.731-2.669-4.633-2.7h-.153c-1.595 0-5.676.399-9.082 4.234-3.559 3.958-5.369 10.37-5.369 19.022 0 25.465 19.942 27.46 26.048 27.46 22.98 0 46.788-30.927 67.805-58.202 16.138-20.924 31.386-40.744 42.646-41.542 2.854 7.363 6.719 15.371 10.493 23.134 6.811 13.99 13.223 27.214 13.223 35.651 0 7.547-2.577 11.996-4.448 15.248-1.197 2.086-2.148 3.743-2.148 5.553 0 2.148 2.608 5.615 7.179 11.536 5.001 6.474 11.26 14.543 13.255 21.323.675 2.302 2.699 3.836 5.062 3.836h14.42c1.258 0 2.086-.89 2.086-2.302 0-1.104-.368-2.086-.798-2.884 2.179.675 4.112 2.179 4.541 4.357l.154.859h2.73c.614 0 1.197-.276 1.596-.736a2.1 2.1 0 0 0 .49-1.688c-.644-4.326-4.816-11.658-16.291-11.812-3.16-2.792-10.554-16.567-13.776-22.888 5.001-2.331 25.772-13.56 25.772-39.977 0-13.867 6.811-20.617 20.832-20.617h1.013c1.074.031 2.148.123 3.221.307 7.272 1.012 17.243 4.387 28.748 8.253 9.634 3.252 20.556 6.934 31.847 9.879a174.82 174.82 0 0 0 16.322 3.498l2.761.46-1.779-2.148c-2.577-3.16-4.111-6.842-4.541-11.014 4.387 3.988 16.138 13.499 29.914 15.003h.061.123c1.135-.092 2.24 0 3.314.184 11.351 2.24 15.279 20.648 15.309 20.832l.062.338 53.599 50.96c.798.767 1.841 1.166 2.915 1.166h10.155c.675 0 1.411-.122 1.994-.337 3.866-1.504 5.216-4.019 5.676-5.584.092.092.215.184.307.307.644.797 1.227 2.362.828 4.387l-.245 1.258h3.467c1.503 0 2.792-1.043 3.099-2.516a25.88 25.88 0 0 0 .582-5.338c0-2.884-1.196-6.351-6.964-6.351-3.314 0-8.499 1.196-10.278 1.626l-43.076-41.389a2.84 2.84 0 0 1 1.35-.521c1.013-.123 2.148.337 3.314 1.319 1.595 1.319 7.547 6.965 17.672 16.752l1.626-1.319c-5.461-8.714-11.137-18.654-17.12-29.178-15.862-27.827-33.749-59.183-52.679-75.505 13.101 3.958 27.337 19.114 43.413 46.144l1.043 1.748.829-1.84c3.528-7.763 5.983-18.102 8.376-28.073 2.147-9.02 4.172-17.519 6.811-23.44.245-.644.491-1.166.767-1.626 5.154-8.621 12.057-11.536 16.291-12.518-3.313 2.792-8.161 7.824-10.032 14.512-1.626 5.768.705 8.314.797 8.437l.277.276h.398c15.617 1.565 20.127 8.713 23.778 14.451 1.964 3.099 3.651 5.737 6.688 6.596 4.234 1.197 7.088-1.871 8.008-3.682l.399-.798-.736-.522c-3.897-2.853-6.351-5.338-8.284-10.217-1.473-3.896-.982-9.266 2.853-11.475 3.651-1.902 8.069-.522 12.272 1.258 2.424 1.074 4.756 2.393 7.241 4.019.276.154.583.399.92.644.706.522 1.412 1.043 2.179 1.227 1.35.368 1.994-.706 2.24-1.105.061-.092.092-.153.153-.215l.061-.092c1.289-2.056 2.608-5.093 3.16-7.241 1.166-4.663-1.687-9.174-7.025-11.168"/></g><g fill="#002e4b"><path d="M415.203 27.92l1.933-3.651c1.933-3.62-2.056-8.499-2.056-8.499-2.761 5.492.123 12.15.123 12.15zm29.975 15.033c2.915.798 5.431-3.222 5.431-3.222s-.215-.153-.675-.399c-1.473-.859-5.277-2.884-11.23-4.663-.153-.061-.306-.092-.46-.153a73.51 73.51 0 0 0-6.995-1.687l7.793 3.498c1.135 2.24 3.313 5.86 6.105 6.627M402.624 59.03s-2.025-2.148-.552-7.425c2.791-10.002 12.824-16.353 12.824-16.353s-12.763-.215-21.016 13.5c-.338.583-.614 1.197-.859 1.81-5.584 12.518-8.53 36.817-15.157 51.452-14.604-24.576-31.355-45.5-48.353-47.525 27.061 20.525 51.943 73.603 72.959 107.199l-17.733-16.813c-4.265-3.559-6.873 0-6.873 0l44.273 42.554s6.75-1.749 10.615-1.749 5.891 1.657 5.891 5.308c0 2.025-.307 3.866-.552 5.154a2.1 2.1 0 0 1-2.056 1.657h-2.209c.706-3.62-1.196-6.32-2.945-6.32 0 0 0 3.988-5.247 6.044-.429.184-1.043.276-1.595.276h-10.155c-.829 0-1.596-.307-2.209-.89l-53.385-50.746s-3.958-19.237-16.138-21.66c-1.135-.215-2.332-.307-3.59-.215-14.42-1.596-26.631-12.15-30.159-15.525-.399-.368-1.043-.061-1.012.491.306 5.339 2.209 9.511 4.878 12.763-5.737-.951-11.137-2.116-16.23-3.466-24.668-6.443-47.157-16.261-60.748-18.163-1.043-.154-2.179-.277-3.344-.307h-1.074c-14.85 0-21.906 7.363-21.906 21.66 0 29.485-26.171 39.456-26.171 39.456s10.769 21.446 14.819 24.452c10.493 0 14.941 6.321 15.647 10.892.092.644-.399 1.227-1.043 1.227h-1.872c-.705-3.528-3.866-5.584-7.24-5.584 0 0 1.411 1.903 1.411 4.326 0 .829-.368 1.258-1.043 1.258h-14.42c-1.902 0-3.528-1.258-4.05-3.068-3.62-12.272-20.403-28.165-20.403-32.552s6.597-8.407 6.597-20.802c0-13.683-16.292-39.332-24.085-59.858-26.539 0-70.535 99.774-111.156 99.774-12.886 0-25.005-7.149-25.005-26.416s9.143-22.182 13.407-22.182h.123c3.436.03 5.523 3.958 3.927 7.148-1.994 3.989-4.387 9.726-4.387 14.604 0 8.468 3.682 16.138 14.573 16.138 35.13 0 69.738-121.864 156.043-121.864 67.191 0 81.396-18.255 124.349-5.308 0 0 40.652-21.875 74.616-21.875 4.049 0 6.811.307 8.529.614-.123 4.387 1.227 9.082 3.16 9.082 4.756 0 5.093-3.007 5.093-3.007s-4.295-16.568 8.192-17.979l4.05 12.211c8.253 2.393 31.079 8.161 32.368 17.335l.368 2.608c5.185 1.687 8.008 5.86 6.934 10.125-.491 2.025-1.78 4.97-3.007 6.934-.337.429-.521 1.197-1.258.982-.92-.245-1.963-1.258-2.853-1.779-2.332-1.534-4.756-2.915-7.363-4.05-3.928-1.657-8.898-3.436-13.193-1.227-4.357 2.546-5.001 8.499-3.344 12.794 1.963 4.97 4.448 7.609 8.652 10.677 0 0-2.24 4.418-6.781 3.129-7.701-2.148-6.044-18.623-30.619-21.047m-94.773 108.764c0 4.111 10.738 12.395 17.795 18.684 7.363 0 14.696 6.106 15.739 10.002a1.05 1.05 0 0 1-1.013 1.319h-3.927c0-3.006-3.773-5.584-6.688-5.584 0 0 1.626 1.657 1.626 4.603 0 .521-.491.981-1.043.981h-12.211c-2.547 0-3.805-.705-5.093-3.773-3.314-7.793-18.225-17.581-18.225-25.926 0-4.755 6.413-23.041 6.413-23.041 4.755.307 13.315.522 17.979 0 0 .338.03.706.03 1.105 0 11.842-11.382 21.63-11.382 21.63zm-195.069-1.688c0 24.821 19.943 25.649 19.943 30.374 0 .706-.307 1.503-1.688 1.503 0 0-1.871-3.436-4.724-3.436 0 0 3.006 3.59-2.731 3.59-7.977 0-13.868-4.203-15.831-5.093s-3.007-1.78-3.16-3.559c-.583-6.873-1.166-16.721-5.953-30.589 0-6.627 30.098-21.691 44.549-51.268 2.945 18.041-.491 40.745-30.405 58.478zm297.174-99.038c4.725 1.687 8.867 3.989 12.641 9.327 3.252 4.602 9.726 8.591 16.844 5.584 2.27-.89 4.142-2.547 5.768-4.387 0 0-.553-.368-.921-.644 1.166-1.074 2.976-3.252 3.743-6.842 0 0-3.467 3.344-6.995 4.326a32.26 32.26 0 0 1-2.117-1.964c4.142-6.627 0-13.684-2.086-16.506.736-.276 1.565-.399 2.546-.276 4.694.399 9.327 3.099 13.346 5.707-.951 2.577-3.006 5.737-3.006 5.737 3.405-.644 5.461-2.209 6.596-3.405 1.381.614 2.853.828 4.357-.092.859-.46 1.442-1.35 1.933-2.117 1.472-2.332 2.546-4.694 3.405-7.302l4.694-4.541c-2.577-4.663-6.657-7.854-11.259-10.217.49-7.149-8.376-12.825-13.776-15.77-5.829-3.037-11.904-5.277-18.132-7.149-1.596-3.007-4.787-12.303-4.787-12.303-10.646 0-15.217 4.571-18.807 11.505-39.026-3.682-86.98 19.329-86.98 19.329-46.021-12.242-53.691 6.504-121.588 6.504-91.337 0-125.116 122.201-156.196 122.201-5.615 0-8.775-2.884-8.775-10.094 0-3.896 1.473-7.547 3.283-10.554 4.387-7.271-.276-16.874-8.468-17.028h-.337c-10.8 0-20.618 9.757-20.618 29.362 0 15.34 8.1 32.46 31.939 32.46 40.836 0 89.373-96.215 106.37-96.215-8.222 32.614-50.562 56.023-50.562 67.099 0 0 5.369 10.37 6.627 34.761.123 2.67 1.411 3.805 3.314 4.449 0 0 9.971 6.228 21.016 6.228 6.413 0 7.272-1.288 7.272-1.288s1.687 1.043 4.847 1.043c2.731 0 5.523-1.841 5.523-4.97 0-13.255-21.477-9.174-21.477-28.626 18.838-5.952 36.449-19.482 43.414-30.097.153-.246.368-.399.552-.614.399 1.196.613 2.332.613 3.467 0 14.604-7.24 15.003-7.24 20.188 0 6.658 18.715 19.482 22.489 34.362.89 3.559 4.51 6.505 8.161 6.505h17.825c3.529 0 5.001-3.007 5.001-3.007s.369 3.007 2.67 3.007h3.804c3.375 0 4.97-2.731 4.756-5.216-.798-8.744-6.259-17.028-19.79-18.501-5.583-4.418-9.449-16.414-9.449-16.414s24.913-12.149 24.913-41.296c0-1.504-.185-4.234.398-7.026 4.265 2.454 40.744 15.34 61.055 23.532 6.505 2.608 9.634 4.111 16.537 5.093 0 0-6.412 16.138-6.412 24.913 0 9.388 16.107 18.378 20.004 29.638 1.288 3.743 3.589 5.277 7.701 5.277h15.033c3.559 0 4.572-3.007 4.572-3.007s-.062 3.007 2.117 3.007h5.614c2.7 0 4.909-1.933 4.909-4.572 0-17.15-20.587-19.145-20.587-19.145-6.934-6.105-10.401-9.357-10.401-11.904 0 0 22.183-11.597 25.036-27.459l7.21-1.135c2.086 4.264 3.037 7.977 4.357 10.124 2.669 4.265 48.353 46.543 55.532 53.232a3.08 3.08 0 0 0 2.24.859h13.591c5.247 0 6.597-3.007 6.597-3.007s-.645 3.007 2.27 3.007h2.332c2.761-.092 5.584-1.841 6.504-4.449.828-2.393 1.81-6.596 1.81-10.248 0-7.792-6.565-9.879-12.211-9.879-4.326 0-9.879 1.718-9.879 1.718l-8.621-8.437c-7.609-14.788-18.746-40.038-31.908-63.448 6.228-11.045 18.868-38.627 27.735-42.431M106.646 235.444c.982.859.583 2.884.583 2.884l-6.259 31.019s-.429 2.025-1.748 2.884h12.517c-.981-.859-.582-2.884-.582-2.884l6.258-31.019s.43-2.025 1.749-2.884h-12.518z"/><path d="M112.414 263.18l-1.472 6.167s-.43 2.025-1.749 2.884h11.751a4.63 4.63 0 0 0 4.54-3.682l1.258-6.627s-1.012 1.288-3.835 1.288h-10.493v-.03zm171.107-27.613h-3.16c-2.056 0-4.081 1.688-4.479 3.743l-3.437 16.967c-.521 2.607-1.534 4.51-3.006 5.737s-3.253 1.841-5.308 1.841-3.59-.645-4.572-1.902c-.981-1.289-1.165-3.283-.644-5.953l3.375-16.69c.43-2.055-.92-3.743-2.976-3.743h-7.762c.951.859.583 2.823.583 2.884l-3.59 17.764c-.583 2.884-.706 5.369-.368 7.517.399 2.086 1.166 3.835 2.362 5.246 1.197 1.381 2.792 2.394 4.756 3.038 1.963.675 4.264 1.012 6.903 1.012s5.062-.337 7.302-1.012c2.27-.675 4.265-1.688 6.013-3.038 1.78-1.411 3.314-3.16 4.541-5.307 1.289-2.179 2.209-4.756 2.823-7.732l3.528-17.519s.399-2.025 1.749-2.884h-4.633v.031zm-133.369 26.447c-1.473 1.227-3.252 1.841-5.308 1.841s-3.59-.645-4.571-1.902c-.982-1.289-1.166-3.283-.645-5.952l.829-4.142c.521-2.608 1.534-4.51 3.006-5.738s3.253-1.841 5.308-1.841 3.59.614 4.572 1.903 1.165 3.282.644 5.921l-.828 4.142c-.522 2.577-1.534 4.51-3.007 5.737m14.573-17.58c-.399-2.086-1.166-3.866-2.362-5.246-1.197-1.35-2.792-2.363-4.756-3.038s-4.264-.981-6.903-.981-5.062.337-7.302.981c-2.27.675-4.295 1.688-6.013 3.038-1.78 1.411-3.314 3.16-4.541 5.308-1.289 2.178-2.209 4.755-2.823 7.731l-.828 4.05c-.583 2.884-.706 5.369-.368 7.517.399 2.117 1.166 3.866 2.362 5.246 1.197 1.35 2.792 2.393 4.756 3.038 1.963.675 4.264.981 6.903.981s5.062-.337 7.302-.981c2.27-.675 4.264-1.688 6.013-3.038 1.78-1.411 3.314-3.16 4.541-5.308 1.166-1.963 2.025-4.234 2.639-6.872l.981-4.909c.583-2.884.706-5.369.369-7.517m168.253-8.836h-9.849c-1.288 0-2.638.675-3.528 1.78l-10.186 12.456-5.154-12.456c-.461-1.105-1.534-1.78-2.823-1.78h-.307-4.878-4.633c.737.675.706 1.994.614 2.577l-5.83 28.81-.49 2.485s-.43 2.025-1.749 2.884h7.455c2.056 0 4.081-1.688 4.48-3.743l3.497-17.274 6.443 14.298h.215l12.272-14.39L315 268.61c-.43 2.056.92 3.743 2.976 3.743h7.547c-.92-.797-.644-2.607-.583-2.822l6.29-31.111c.061-.245.491-2.024 1.718-2.822m35.528 33.871l-6.995-31.601c-.307-1.38-1.473-2.27-2.976-2.27H349.7c.583 1.043-.583 2.884-.583 2.884l-19.36 31.018-.03.092c-.246.43-1.35 2.056-2.792 2.823h9.234c1.535 0 3.099-.921 3.958-2.363l2.547-4.203 10.861-18.593 2.055 11.076h-1.043c-3.405 0-6.872 2.117-8.713 5.277l-1.565 2.7s2.332-.951 7.578-.951c4.633 0 5.891 4.664 5.891 4.664.276 1.442 1.473 2.393 3.007 2.393h9.419c-1.319-.859-1.688-2.884-1.688-2.884m22.121-34.424c-2.209 0-4.234.276-6.074.859-1.872.583-3.498 1.381-4.971 2.424-1.442 1.043-2.638 2.27-3.559 3.712a14.34 14.34 0 0 0-1.933 4.694v.092c-.398 1.872-.368 3.467.092 4.725s1.228 2.332 2.301 3.191 2.394 1.565 3.958 2.086c1.565.553 3.283 1.043 5.155 1.473 1.196.276 2.178.552 2.884.828.736.246 1.319.522 1.718.798.429.276.675.552.797.859s.123.644.062 1.013v.092c-.184.797-.675 1.411-1.473 1.84s-1.871.645-3.252.645c-3.314 0-6.29-.89-8.897-2.7-1.442-1.013-1.473-2.485-1.473-2.485l-4.48 4.51c-1.81 1.749-1.963 4.387-.245 5.553 1.197.828 2.547 1.503 3.989 2.056 2.73 1.012 5.768 1.534 9.02 1.534 2.239 0 4.295-.276 6.228-.798 1.933-.552 3.62-1.319 5.124-2.363s2.761-2.27 3.773-3.743 1.718-3.129 2.087-5.001v-.092c.368-1.718.337-3.19 0-4.418-.369-1.227-1.074-2.301-2.087-3.16s-2.301-1.595-3.865-2.209-3.345-1.135-5.37-1.595l-2.945-.798c-.767-.245-1.35-.521-1.779-.767-.43-.276-.706-.552-.829-.859s-.153-.675-.061-1.104v-.092c.153-.675.583-1.228 1.288-1.688s1.657-.675 2.884-.675c1.627 0 3.283.307 4.909.921.706.245 1.381.552 2.025.92 1.473.859 1.872 2.454 1.872 2.454l6.566-8.161s-4.848-4.632-13.408-4.632"/><path d="M184.852 235.352c-2.209 0-4.234.276-6.075.859-1.872.583-3.528 1.381-4.97 2.424s-2.639 2.271-3.559 3.713a14.31 14.31 0 0 0-1.933 4.694v.092c-.399 1.871-.368 3.467.092 4.725s1.227 2.331 2.301 3.19 2.393 1.534 3.958 2.087a47.09 47.09 0 0 0 5.154 1.472l2.884.798c.736.245 1.289.522 1.718.798s.675.552.798.859.123.644.061 1.012v.092c-.184.798-.675 1.412-1.472 1.841s-1.872.644-3.253.644c-3.313 0-6.289-.889-8.897-2.699-1.442-1.013-1.473-2.486-1.473-2.486l-4.479 4.51c-1.81 1.749-1.964 4.388-.246 5.554 1.197.828 2.547 1.503 3.989 2.055 2.731 1.013 5.768 1.534 9.02 1.534 2.24 0 4.295-.276 6.228-.797 1.933-.553 3.621-1.32 5.124-2.363s2.761-2.27 3.774-3.743a13.22 13.22 0 0 0 2.086-5.001v-.092c.368-1.718.338-3.191 0-4.418-.368-1.227-1.074-2.301-2.086-3.16s-2.301-1.595-3.866-2.209-3.344-1.135-5.369-1.595l-2.946-.798a9.33 9.33 0 0 1-1.779-.767c-.43-.276-.706-.552-.828-.859s-.154-.675-.062-1.105v-.092c.154-.675.583-1.227 1.289-1.687s1.657-.675 2.884-.675c1.626 0 3.283.307 4.909.92.705.246 1.38.553 2.025.921 1.472.859 1.871 2.454 1.871 2.454l6.566-8.161s-4.848-4.633-13.408-4.633m48.722.184h-17.672c.981.859.583 2.823.583 2.884l-6.259 31.019s-.43 2.025-1.749 2.884h12.518c-.982-.859-.583-2.884-.583-2.884l5.062-25.067h6.32c4.572 0 5.492 1.933 4.94 4.664-.675 3.313-3.498 4.878-6.873 4.878h-.368c-4.571 0-5.798-1.595-5.798-1.595l-.952 4.694c-.644 3.191 3.866 5.86 7.885 5.86 7.517 0 14.021-3.436 16.169-14.665 1.78-9.389-4.387-12.672-13.193-12.672m175.402 30.528h-1.319v1.657h1.319c.645 0 1.043-.307 1.043-.829s-.398-.828-1.043-.828zm.859 2.362l1.412 1.994h-1.197l-1.288-1.81h-1.105v1.81h-1.012v-5.246h2.331c1.228 0 2.025.614 2.025 1.687 0 .86-.491 1.381-1.227 1.596"/><path d="M408.73 272.231c-2.424 0-4.357-1.933-4.357-4.357s1.933-4.387 4.357-4.387 4.356 1.902 4.356 4.356-1.933 4.388-4.356 4.388zm0-9.542c-2.854 0-5.155 2.301-5.155 5.154s2.301 5.155 5.155 5.155a5.2 5.2 0 0 0 5.185-5.185c0-2.854-2.301-5.155-5.155-5.155"/></g></g><defs><clipPath id="A"><path fill="#fff" d="M0 0h475v273.243H0z"/></clipPath></defs></svg>